<svg xmlns="http://www.w3.org/2000/svg" xmlns:xlink="http://www.w3.org/1999/xlink" width="500" zoomAndPan="magnify" viewBox="0 0 375 374.999991" height="500" preserveAspectRatio="xMidYMid meet" version="1.0"><defs><clipPath id="bb75735b1b"><path d="M 2.566406 8.285156 L 372.316406 8.285156 L 372.316406 366.785156 L 2.566406 366.785156 Z M 2.566406 8.285156 " clip-rule="nonzero"/></clipPath><clipPath id="21051b7a69"><path d="M 4 165 L 371 165 L 371 366.785156 L 4 366.785156 Z M 4 165 " clip-rule="nonzero"/></clipPath></defs><g clip-path="url(#bb75735b1b)"><rect x="-37.5" width="450" fill="#fdfdfd" y="-37.499999" height="449.999989" fill-opacity="1"/></g><path fill="#f5a920" d="M 140.570312 37.3125 C 144.195312 37.308594 147.816406 37.304688 151.4375 37.296875 C 159 37.289062 166.566406 37.300781 174.128906 37.324219 C 183.761719 37.355469 193.394531 37.335938 203.03125 37.308594 C 210.503906 37.289062 217.976562 37.292969 225.449219 37.308594 C 228.996094 37.3125 232.546875 37.308594 236.097656 37.292969 C 280.46875 37.175781 280.46875 37.175781 297.859375 45.753906 C 309.992188 52.746094 319.726562 62.074219 327.125 73.976562 C 334.042969 87.078125 335.636719 99.066406 335.644531 113.6875 L 335.691406 118.96875 C 335.730469 124.714844 335.742188 130.457031 335.757812 136.203125 L 335.800781 148.25 C 335.828125 156.667969 335.84375 165.085938 335.851562 173.5 C 335.859375 184.238281 335.921875 194.96875 336 205.703125 C 336.050781 214.003906 336.0625 222.300781 336.066406 230.597656 C 336.070312 234.554688 336.09375 238.507812 336.128906 242.460938 C 336.46875 283.292969 336.46875 283.292969 326.597656 302.277344 C 319.890625 312.984375 311.917969 321.375 301.023438 327.855469 C 278.144531 339.765625 252.238281 338.601562 227.164062 338.539062 L 217.199219 338.546875 C 210.273438 338.554688 203.347656 338.546875 196.421875 338.53125 C 187.59375 338.511719 178.769531 338.523438 169.941406 338.542969 C 163.09375 338.554688 156.25 338.554688 149.402344 338.542969 C 146.148438 338.539062 142.894531 338.542969 139.644531 338.550781 C 94.503906 338.636719 94.503906 338.636719 73.941406 327.417969 C 61.867188 319.957031 53.984375 312.234375 47.070312 299.722656 C 35.578125 277.765625 37.925781 249.082031 37.988281 224.945312 L 37.980469 215.128906 C 37.972656 208.320312 37.980469 201.511719 37.996094 194.703125 C 38.015625 186.039062 38.003906 177.371094 37.984375 168.703125 C 37.972656 161.964844 37.972656 155.222656 37.984375 148.484375 C 37.988281 145.289062 37.984375 142.097656 37.976562 138.902344 C 37.886719 92.050781 37.886719 92.050781 47.644531 74.496094 C 55.667969 62.425781 65.140625 52.085938 78.082031 45.296875 C 97.925781 36.03125 119.1875 37.242188 140.570312 37.3125 " fill-opacity="1" fill-rule="nonzero"/><g clip-path="url(#21051b7a69)"><path fill="#ededfc" d="M 336.828125 165.875 L 339.28125 169.496094 C 344.027344 174.824219 348.738281 177.835938 354.878906 181.359375 C 360.9375 186.171875 365.429688 191.511719 369.226562 198.269531 C 370.542969 203.773438 370.507812 208.984375 370.34375 214.621094 L 370.324219 219.285156 C 370.300781 222.535156 370.253906 225.78125 370.183594 229.03125 C 370.089844 233.902344 370.035156 238.773438 370.023438 243.644531 C 369.585938 295.949219 369.585938 295.949219 359.199219 315.582031 C 357.394531 319.128906 356.375 322.265625 355.585938 326.148438 L 352.175781 326.148438 L 351.175781 329.207031 C 348.859375 336.234375 346.511719 343.191406 343.648438 350.019531 L 348.765625 351.726562 L 343.648438 353.429688 L 340.347656 356.839844 C 336.828125 360.25 336.828125 360.25 333.3125 361.425781 L 330.007812 361.957031 L 324.894531 363.660156 L 324.894531 367.070312 L 321.484375 367.070312 L 321.484375 370.480469 L 326.597656 372.1875 L 311.253906 373.890625 L 311.253906 380.710938 L 306.136719 382.417969 C 304.421875 384.683594 302.714844 386.957031 301.023438 389.238281 L 297.613281 389.238281 L 299.316406 392.648438 L 304.433594 394.351562 L 304.433594 397.761719 C 298.625 399.089844 293.335938 399.640625 287.382812 399.46875 L 287.382812 402.878906 L 283.832031 403.445312 L 279.175781 404.261719 L 274.558594 405.042969 C 269.925781 406.410156 268.472656 408 265.214844 411.40625 C 259.78125 411.726562 259.78125 411.726562 254.984375 411.40625 L 258.394531 418.226562 L 252 418.972656 C 248.265625 419.429688 244.773438 419.925781 241.132812 420.890625 C 236.539062 421.960938 232.402344 421.929688 227.703125 421.636719 C 223.65625 419.929688 223.65625 419.929688 220.882812 418.226562 L 220.882812 421.636719 L 218.242188 420.730469 C 212.597656 419.648438 207.519531 420.261719 201.808594 420.78125 C 197.941406 421.132812 194.070312 421.433594 190.191406 421.636719 L 188.488281 419.929688 C 185.527344 419.832031 182.570312 419.816406 179.609375 419.882812 L 174.125 419.945312 C 170.292969 420.007812 166.460938 420.074219 162.628906 420.144531 L 157.121094 420.203125 L 152.070312 420.289062 C 147.359375 419.914062 144.714844 419.015625 140.746094 416.519531 L 137.335938 413.109375 C 128.964844 410.734375 120.636719 411.425781 112.023438 411.675781 C 106.558594 411.398438 103.054688 410.246094 98.117188 407.992188 C 95.289062 407.355469 92.449219 406.789062 89.59375 406.289062 L 94.707031 402.878906 L 90.019531 402.238281 C 85.175781 401.308594 81.875 400.195312 77.65625 397.761719 L 77.65625 394.351562 L 74.246094 394.351562 L 74.246094 390.941406 L 71.050781 390.304688 C 67.425781 389.238281 67.425781 389.238281 64.015625 385.828125 L 67.425781 384.121094 L 57.195312 380.710938 L 60.605469 379.007812 L 60.605469 375.597656 L 46.964844 373.890625 L 45.261719 356.839844 L 43.554688 358.546875 C 43.484375 361.386719 43.484375 364.230469 43.554688 367.070312 L 40.144531 368.777344 L 38.652344 364.726562 C 36.992188 360.085938 36.992188 360.085938 33.324219 356.839844 C 33.113281 352.367188 33.113281 352.367188 33.324219 348.316406 L 26.503906 346.609375 L 33.324219 346.609375 L 31.621094 343.199219 C 27.3125 342.082031 27.3125 342.082031 23.09375 341.496094 L 24.800781 334.675781 L 19.683594 331.265625 C 17.441406 326.695312 17.441406 326.695312 15.316406 321.25 C 12.632812 314.273438 12.632812 314.273438 9.398438 307.550781 C 7.617188 303.699219 7.082031 300.667969 6.671875 296.457031 L 6.238281 292.09375 L 5.832031 287.574219 L 5.382812 283.171875 C 3.785156 266.410156 4.277344 249.988281 5.617188 233.222656 L 5.9375 228.222656 C 7.03125 214.664062 10.582031 203.253906 17.554688 191.554688 C 21.390625 188.039062 21.390625 188.039062 35.03125 182.925781 L 35.03125 239.191406 L 38.441406 239.191406 L 38.617188 242.597656 C 40.367188 275.8125 40.367188 275.8125 52.726562 306.269531 C 58.457031 314.652344 65.453125 321.089844 74.246094 326.148438 C 91.246094 334.023438 106.679688 336.640625 125.179688 336.628906 L 129.5625 336.644531 C 134.308594 336.660156 139.054688 336.667969 143.800781 336.667969 L 153.789062 336.683594 C 160.761719 336.695312 167.730469 336.699219 174.699219 336.695312 C 183.578125 336.695312 192.457031 336.71875 201.332031 336.75 C 208.210938 336.765625 215.085938 336.773438 221.964844 336.769531 C 225.234375 336.769531 228.503906 336.777344 231.777344 336.792969 C 257.117188 336.886719 281.546875 336.839844 304.433594 324.445312 C 314.34375 317.691406 321.300781 309.578125 326.597656 298.867188 C 332.726562 284.21875 334.425781 271.039062 334.398438 255.257812 L 334.46875 248.789062 C 334.53125 243.179688 334.5625 237.566406 334.578125 231.957031 C 334.605469 224.039062 334.6875 216.121094 334.765625 208.203125 C 334.804688 204.007812 334.828125 199.8125 334.84375 195.613281 C 334.910156 185.542969 335.300781 175.832031 336.828125 165.875 " fill-opacity="1" fill-rule="nonzero"/></g><path fill="#fbb73b" d="M 197.011719 143.707031 L 202.128906 143.707031 L 222.589844 208.5 C 226.824219 198.96875 230.449219 190.621094 233.433594 180.839844 L 234.433594 177.578125 C 235.464844 174.210938 236.492188 170.84375 237.507812 167.472656 L 239.632812 160.535156 C 241.347656 154.929688 243.054688 149.320312 244.753906 143.707031 L 248.164062 145.414062 L 248.238281 148.644531 C 248.367188 153.464844 248.53125 158.285156 248.699219 163.101562 L 248.8125 168.191406 L 248.996094 173.054688 L 249.132812 177.542969 L 249.871094 181.21875 L 254.984375 184.628906 C 276.796875 183.78125 299.300781 176.40625 319.113281 167.664062 C 323.1875 165.875 323.1875 165.875 328.304688 164.167969 L 330.007812 165.875 L 331.714844 162.464844 L 335.125 162.464844 C 335.324219 177.167969 335.472656 191.871094 335.566406 206.578125 C 335.609375 213.410156 335.667969 220.238281 335.765625 227.070312 C 335.855469 233.683594 335.914062 240.292969 335.933594 246.902344 C 335.949219 249.40625 335.980469 251.910156 336.027344 254.410156 C 336.335938 271.925781 334.105469 286.300781 326.597656 302.28125 C 319.957031 313 311.886719 321.394531 301.023438 327.855469 C 280.152344 338.71875 256.882812 338.585938 233.90625 338.417969 L 226.085938 338.40625 C 219.304688 338.390625 212.523438 338.359375 205.746094 338.320312 C 198.792969 338.285156 191.84375 338.269531 184.894531 338.25 C 171.3125 338.214844 157.734375 338.160156 144.15625 338.085938 L 142.449219 334.675781 L 145.859375 332.96875 C 147.105469 329.878906 147.105469 329.878906 148.097656 326.148438 C 152.980469 311.003906 160.289062 300.523438 171.730469 289.445312 C 176.71875 285.082031 181.90625 281.277344 187.3125 277.449219 C 195.003906 271.839844 199.953125 267.042969 204.019531 258.425781 C 208.574219 248.246094 208.574219 248.246094 210.652344 237.484375 L 128.808594 235.78125 C 130.726562 218.515625 130.726562 218.515625 132.429688 211.808594 L 133.566406 207.257812 L 134.785156 202.527344 L 136.039062 197.546875 C 137.351562 192.351562 138.671875 187.15625 140 181.964844 L 142.6875 171.332031 C 144.871094 162.691406 147.0625 154.050781 149.269531 145.414062 L 154.386719 145.414062 L 155.527344 149 L 160.78125 165.445312 L 162.578125 171.089844 C 163.777344 174.847656 164.984375 178.605469 166.199219 182.359375 C 167.441406 186.21875 168.667969 190.085938 169.882812 193.957031 L 171.675781 199.574219 L 173.277344 204.652344 L 174.847656 208.5 L 178.257812 210.207031 L 178.726562 207.382812 C 181.210938 193.703125 185.351562 180.589844 189.554688 167.363281 C 190.277344 165.0625 191 162.757812 191.722656 160.449219 C 193.480469 154.867188 195.242188 149.285156 197.011719 143.707031 " fill-opacity="1" fill-rule="nonzero"/><path fill="#fefefe" d="M 197.011719 143.707031 L 202.128906 143.707031 L 222.589844 208.5 C 226.824219 198.96875 230.449219 190.621094 233.433594 180.839844 L 234.433594 177.578125 C 235.464844 174.210938 236.492188 170.84375 237.507812 167.472656 L 239.632812 160.535156 C 241.347656 154.929688 243.054688 149.320312 244.753906 143.707031 L 248.164062 145.414062 C 248.207031 158.007812 248.238281 170.605469 248.257812 183.199219 C 248.265625 187.488281 248.277344 191.777344 248.292969 196.066406 C 248.316406 202.214844 248.324219 208.367188 248.332031 214.515625 L 248.359375 220.363281 L 248.359375 225.742188 L 248.371094 230.503906 L 248.164062 234.078125 L 246.460938 235.78125 C 242.800781 235.941406 239.132812 235.980469 235.464844 235.976562 L 231.988281 235.976562 C 228.179688 235.976562 224.367188 235.960938 220.558594 235.949219 L 212.652344 235.941406 C 205.703125 235.933594 198.753906 235.917969 191.804688 235.898438 C 184.71875 235.882812 177.632812 235.871094 170.546875 235.863281 C 156.636719 235.847656 142.722656 235.820312 128.808594 235.78125 C 129.832031 224.34375 131.929688 213.636719 134.785156 202.527344 L 136.039062 197.546875 C 137.351562 192.351562 138.671875 187.15625 140 181.964844 L 142.6875 171.332031 C 144.871094 162.691406 147.0625 154.050781 149.269531 145.414062 L 154.386719 145.414062 L 155.527344 149 L 160.78125 165.445312 L 162.578125 171.089844 C 163.777344 174.847656 164.984375 178.605469 166.199219 182.359375 C 167.441406 186.21875 168.667969 190.085938 169.882812 193.957031 L 171.675781 199.574219 L 173.277344 204.652344 L 174.847656 208.5 L 178.257812 210.207031 L 178.726562 207.382812 C 181.210938 193.703125 185.351562 180.589844 189.554688 167.363281 C 190.277344 165.0625 191 162.757812 191.722656 160.449219 C 193.480469 154.867188 195.242188 149.285156 197.011719 143.707031 " fill-opacity="1" fill-rule="nonzero"/></svg>